<svg width="160" height="160" viewBox="0 0 160 160" fill="none" xmlns="http://www.w3.org/2000/svg">
<path fill-rule="evenodd" clip-rule="evenodd" d="M80 0C58.7827 0 38.4326 8.42808 23.4297 23.431C8.42678 38.4339 0 58.7827 0 80C0 101.217 8.42678 121.565 23.4297 136.568C38.4326 151.571 58.7827 160 80 160C101.217 160 121.565 151.571 136.568 136.568C151.571 121.565 160 101.217 160 80C160 58.7827 151.571 38.4339 136.568 23.431C121.565 8.42808 101.217 0 80 0ZM79.7214 56.3835C79.7214 55.7823 79.9603 55.2063 80.3854 54.7812C80.8105 54.3562 81.3884 54.1172 81.9896 54.1172C82.2879 54.1165 82.5835 54.1742 82.8594 54.2878C83.1353 54.4013 83.3849 54.5682 83.5964 54.7786C83.8078 54.9891 83.9763 55.2396 84.0911 55.515C84.206 55.7904 84.2649 56.0851 84.2656 56.3835V56.5547C84.7787 55.7769 85.4759 55.1369 86.2943 54.6914C87.1127 54.2459 88.0266 54.0086 88.9583 54C89.8742 53.9456 90.7879 54.1548 91.5885 54.6029C92.3891 55.0509 93.0439 55.719 93.4766 56.528C94.0945 55.7315 94.8892 55.089 95.7969 54.6504C96.7045 54.2118 97.7003 53.9892 98.7083 54C102.063 54 104.091 56.0265 104.091 59.8665V68.1758C104.092 68.4729 104.033 68.767 103.919 69.0417C103.806 69.3163 103.64 69.5659 103.43 69.776C103.22 69.9862 102.97 70.1529 102.695 70.2663C102.421 70.3797 102.125 70.4376 101.828 70.4369C101.228 70.4369 100.654 70.1993 100.229 69.7754C99.8042 69.3515 99.5639 68.776 99.5625 68.1758V61.349C99.5625 59.2156 98.6132 58.1009 96.8958 58.1009C95.1785 58.1009 94.1536 59.205 94.1536 61.349V68.1758C94.1544 68.472 94.0971 68.7657 93.9844 69.0397C93.8717 69.3137 93.7064 69.5628 93.4974 69.7728C93.2884 69.9828 93.0391 70.149 92.7656 70.263C92.4922 70.377 92.1999 70.4361 91.9036 70.4369C91.6053 70.4383 91.31 70.3811 91.0339 70.2682C90.7577 70.1553 90.5062 69.9893 90.2943 69.7793C90.0823 69.5693 89.9123 69.3194 89.7969 69.0443C89.6814 68.7692 89.6212 68.4741 89.6198 68.1758V61.349C89.6198 59.2156 88.6705 58.1009 86.9531 58.1009C85.2358 58.1009 84.224 59.205 84.224 61.349V68.1758C84.2211 68.7774 83.979 69.3534 83.5521 69.7773C83.1252 70.2013 82.547 70.4383 81.9453 70.4369C81.3451 70.4369 80.7713 70.1993 80.3464 69.7754C79.9214 69.3515 79.6811 68.776 79.6797 68.1758L79.7214 56.3835ZM130.922 64.4264C130.389 64.2931 127.862 63.7706 127.19 63.5306C126.217 63.2744 125.361 62.6901 124.768 61.877C124.176 61.0638 123.881 60.0712 123.935 59.0664C123.981 58.3339 124.176 57.6182 124.508 56.9635C124.84 56.3089 125.301 55.729 125.865 55.2585C126.428 54.7879 127.083 54.4372 127.786 54.2272C128.49 54.0173 129.227 53.9524 129.956 54.0371C131.859 53.9233 133.75 54.4121 135.359 55.4342C135.77 55.7068 136.059 56.1289 136.164 56.6107C136.27 57.0925 136.184 57.5962 135.924 58.0156C135.679 58.3882 135.3 58.652 134.865 58.7513C134.429 58.8507 133.972 58.7778 133.589 58.5488C132.501 57.9567 131.298 57.6079 130.062 57.5254C128.617 57.4881 128 58.0583 127.99 58.6823C127.979 59.3063 128.612 59.6636 129.284 59.877C129.956 60.0903 131.894 60.5707 132.987 60.9173C134.039 61.092 134.989 61.6444 135.661 62.4714C136.334 63.2983 136.684 64.3424 136.641 65.4076C136.641 68.4316 134.293 70.528 130.117 70.528C128.2 70.5226 126.316 70.025 124.646 69.0827C124.261 68.8342 123.983 68.4499 123.867 68.0065C123.752 67.5631 123.806 67.0923 124.021 66.6875C124.257 66.275 124.645 65.9713 125.102 65.8398C125.559 65.7084 126.049 65.7599 126.469 65.9837C127.59 66.5754 128.822 66.9298 130.086 67.0241C131.494 67.0881 132.564 66.6555 132.602 65.7702C132.618 64.9649 131.808 64.6504 130.906 64.4264H130.922ZM52.0677 54C52.8337 53.9649 53.5987 54.0983 54.3073 54.3913C55.0159 54.6843 55.6518 55.1295 56.1693 55.6953C56.6867 56.2611 57.0734 56.9335 57.3021 57.6654C57.5308 58.3972 57.5954 59.1706 57.4922 59.9303V68.181C57.4894 68.7799 57.2516 69.3532 56.8281 69.7767C56.4047 70.2002 55.8307 70.4399 55.2318 70.4427C54.9334 70.4441 54.6382 70.3863 54.362 70.2734C54.0858 70.1606 53.8344 69.9945 53.6224 69.7845C53.4104 69.5745 53.2405 69.3246 53.125 69.0495C53.0095 68.7744 52.9493 68.4794 52.9479 68.181V61.3542C52.9479 59.2208 51.9468 58.112 50.2188 58.112C48.4908 58.112 47.3802 59.2155 47.3802 61.3542V68.181C47.3816 68.4783 47.3241 68.7732 47.2109 69.0482C47.0978 69.3232 46.9316 69.5729 46.7214 69.7832C46.5111 69.9935 46.262 70.1603 45.987 70.2734C45.712 70.3866 45.4172 70.4441 45.1198 70.4427C44.8235 70.442 44.5313 70.3829 44.2578 70.2689C43.9844 70.1549 43.735 69.988 43.526 69.778C43.3171 69.568 43.1518 69.3189 43.0391 69.0449C42.9263 68.7709 42.8691 68.4773 42.8698 68.181V51.429C42.8691 51.1328 42.9263 50.8391 43.0391 50.5651C43.1518 50.2911 43.3171 50.042 43.526 49.832C43.735 49.622 43.9844 49.4558 44.2578 49.3418C44.5313 49.2278 44.8235 49.1687 45.1198 49.168C45.417 49.1673 45.7123 49.2252 45.987 49.3385C46.2617 49.4519 46.5112 49.6187 46.7214 49.8288C46.9315 50.0389 47.0975 50.2885 47.2109 50.5632C47.3243 50.8378 47.3809 51.1319 47.3802 51.429V56.5599C47.8905 55.7851 48.5825 55.1467 49.3958 54.7005C50.2092 54.2543 51.1193 54.014 52.0469 54H52.0677ZM45.513 88.8744L49.6797 76.2129C49.8097 75.6948 50.1087 75.2344 50.5286 74.9043C50.9486 74.5742 51.4659 74.3934 52 74.3893H52.3672C52.9016 74.3899 53.4214 74.5696 53.8411 74.9004C54.2609 75.2312 54.5568 75.6934 54.6823 76.2129L58.8516 88.8744L62.9922 76.0742C63.1337 75.6003 63.4234 75.1851 63.8203 74.89C64.2173 74.5949 64.7007 74.4357 65.1953 74.4369C65.4893 74.4297 65.781 74.4818 66.0547 74.5892C66.3284 74.6966 66.5784 74.8573 66.7891 75.0625C66.9997 75.2677 67.1666 75.5131 67.2812 75.7839C67.3959 76.0547 67.4551 76.3459 67.4557 76.64C67.4431 76.9446 67.3809 77.2453 67.2734 77.5306L61.4453 93.9147C61.3037 94.4425 60.9949 94.9099 60.5651 95.2474C60.1353 95.5849 59.6062 95.774 59.0599 95.7865H58.5859C58.0419 95.777 57.5173 95.5884 57.0911 95.25C56.665 94.9116 56.3616 94.4425 56.2292 93.9147L52.1224 81.9785L48.0104 93.9147C47.8809 94.4421 47.5808 94.9114 47.1562 95.25C46.7317 95.5887 46.207 95.7774 45.6641 95.7865H45.1823C44.6357 95.7726 44.1101 95.5833 43.6797 95.2461C43.2493 94.9089 42.9385 94.4421 42.7943 93.9147L36.9714 77.5306C36.8615 77.255 36.7976 76.9631 36.7839 76.6667C36.7908 76.3655 36.857 76.0683 36.9792 75.793C37.1013 75.5176 37.2761 75.2691 37.4948 75.0619C37.7134 74.8546 37.9711 74.6925 38.2526 74.5853C38.5341 74.478 38.8343 74.4276 39.1354 74.4369C39.6352 74.4328 40.1226 74.5899 40.526 74.8848C40.9295 75.1797 41.2272 75.5968 41.375 76.0742L45.513 88.8744ZM38.7526 53.6374H34.3464V68.1439C34.3492 68.4458 34.2913 68.7452 34.1771 69.0247C34.0628 69.3043 33.8932 69.558 33.6797 69.7715C33.4662 69.985 33.2144 70.154 32.9349 70.2682C32.6554 70.3825 32.354 70.4397 32.0521 70.4369C31.7499 70.4397 31.4517 70.3824 31.1719 70.2682C30.8921 70.1541 30.6358 69.9856 30.4219 69.7721C30.2079 69.5587 30.0393 69.3049 29.9245 69.0254C29.8097 68.7458 29.7531 68.4461 29.7552 68.1439V53.6374H25.349C24.7832 53.6374 24.2412 53.4124 23.8411 53.0124C23.4411 52.6123 23.2161 52.0697 23.2161 51.5039C23.2232 50.9427 23.4496 50.4067 23.849 50.0124C24.2483 49.618 24.7878 49.3971 25.349 49.3971H38.7526C39.3138 49.3971 39.8507 49.618 40.25 50.0124C40.6493 50.4067 40.8784 50.9427 40.8854 51.5039C40.8847 51.7854 40.8276 52.064 40.7188 52.3236C40.6099 52.5832 40.4503 52.8185 40.25 53.0163C40.0497 53.2141 39.813 53.3703 39.5521 53.4759C39.2911 53.5815 39.0107 53.6343 38.7292 53.6315L38.7526 53.6374ZM28.3359 107.562C28.6742 107.561 29.0026 107.669 29.2734 107.872C34.3876 112.156 40.7457 114.679 47.4062 115.066C52.2363 114.98 57.0052 113.957 61.4453 112.053C67.3428 109.493 73.684 108.11 80.112 107.984C86.5399 108.111 92.8809 109.494 98.7786 112.053C103.22 113.957 107.989 114.98 112.82 115.066C119.482 114.683 125.841 112.16 130.953 107.872C131.226 107.669 131.559 107.561 131.898 107.562C132.102 107.562 132.304 107.601 132.492 107.679C132.681 107.757 132.853 107.871 132.997 108.016C133.142 108.16 133.256 108.331 133.333 108.52C133.411 108.708 133.451 108.911 133.451 109.115C133.445 109.427 133.351 109.731 133.182 109.994C130.66 113.965 127.17 117.23 123.039 119.48C118.908 121.731 114.272 122.894 109.568 122.859C104.893 122.812 100.269 121.874 95.9453 120.096C90.9496 117.874 85.5672 116.656 80.1016 116.512C74.6376 116.656 69.2541 117.873 64.2604 120.096C59.9355 121.876 55.3121 122.814 50.6354 122.859C45.9338 122.891 41.3002 121.727 37.1719 119.477C33.0436 117.226 29.5546 113.963 27.0339 109.994C26.8611 109.733 26.7679 109.428 26.763 109.115C26.7623 108.911 26.8002 108.709 26.8776 108.521C26.955 108.333 27.0699 108.162 27.2135 108.018C27.3572 107.873 27.5281 107.759 27.7161 107.681C27.9041 107.603 28.1063 107.562 28.3099 107.562H28.3359ZM94.4219 79.5091C94.6701 79.4969 94.9179 79.5348 95.151 79.6211C95.3841 79.7074 95.5956 79.8401 95.776 80.0111C95.9565 80.182 96.1018 80.3878 96.2005 80.6159C96.2992 80.844 96.3504 81.09 96.3516 81.3385C96.3503 81.588 96.299 81.8346 96.2005 82.0638C96.102 82.293 95.9588 82.4999 95.7786 82.6725C95.5985 82.8452 95.3842 82.9803 95.151 83.069C94.9179 83.1577 94.6712 83.1981 94.4219 83.1888H92.2865V90.4746C92.2865 91.5413 92.742 92.0208 93.75 92.0208C93.9766 92.015 94.2024 91.9971 94.4271 91.9675C94.6592 91.9045 94.903 91.8985 95.138 91.9492C95.3731 92 95.5906 92.1067 95.776 92.2598C95.9615 92.4128 96.1087 92.6076 96.2031 92.8288C96.2975 93.0499 96.3381 93.2908 96.3203 93.5306C96.331 93.9135 96.2195 94.2899 96.0052 94.6074C95.791 94.925 95.4841 95.1673 95.125 95.3008C94.3018 95.623 93.4227 95.776 92.5391 95.7494C89.7657 95.7494 87.8828 94.6399 87.8828 90.9492V83.1836H87.4557C87.2064 83.1921 86.9571 83.1508 86.724 83.0619C86.4908 82.9729 86.2793 82.8384 86.099 82.666C85.9186 82.4936 85.7738 82.2869 85.6745 82.0579C85.5752 81.829 85.5209 81.5828 85.5182 81.3333C85.5208 81.0848 85.5749 80.8391 85.6745 80.6113C85.774 80.3835 85.9183 80.1779 86.099 80.0072C86.2797 79.8364 86.4935 79.7037 86.7266 79.6172C86.9596 79.5307 87.2074 79.4924 87.4557 79.5039H87.8828V77.5091C87.8828 76.9094 88.1202 76.3342 88.5443 75.9102C88.9684 75.4861 89.5435 75.248 90.1432 75.248C90.4334 75.2513 90.7212 75.3126 90.987 75.429C91.2528 75.5455 91.491 75.7141 91.6901 75.9251C91.8892 76.1362 92.0451 76.3855 92.1458 76.6576C92.2466 76.9296 92.2897 77.2193 92.276 77.5091V79.5039L94.4219 79.5091ZM124.404 81.5358C124.413 82.0372 124.247 82.5259 123.932 82.916C123.617 83.3061 123.174 83.5728 122.682 83.6693C120.389 84.2026 119.104 85.9731 119.104 89.1784V93.4134C119.105 93.7108 119.046 94.005 118.932 94.28C118.819 94.5549 118.653 94.8051 118.443 95.0156C118.233 95.2262 117.983 95.3932 117.708 95.5072C117.434 95.6211 117.139 95.6797 116.841 95.6797C116.241 95.6783 115.666 95.4386 115.242 95.0137C114.818 94.5887 114.581 94.0136 114.581 93.4134V81.6107C114.581 81.314 114.639 81.0202 114.753 80.7461C114.866 80.472 115.035 80.2226 115.245 80.013C115.455 79.8035 115.702 79.6378 115.977 79.5247C116.251 79.4117 116.544 79.3535 116.841 79.3542C117.138 79.3535 117.434 79.4117 117.708 79.5247C117.983 79.6378 118.23 79.8035 118.44 80.013C118.65 80.2226 118.819 80.472 118.932 80.7461C119.046 81.0202 119.104 81.314 119.104 81.6107V82.3359C119.638 80.7946 120.83 79.3542 122.174 79.3542C122.467 79.3358 122.762 79.3797 123.036 79.4824C123.311 79.5852 123.56 79.7446 123.768 79.9505C123.977 80.1565 124.139 80.4046 124.245 80.6777C124.351 80.9509 124.398 81.2431 124.383 81.5358H124.404ZM119.43 63.8984H110.87C111.034 64.791 111.514 65.5939 112.224 66.1595C112.934 66.7251 113.823 67.0153 114.729 66.9759C115.899 67.0027 117.044 66.6257 117.969 65.9089C118.158 65.7468 118.377 65.6246 118.615 65.5488C118.852 65.4731 119.103 65.4457 119.352 65.4681C119.6 65.4905 119.842 65.5621 120.062 65.679C120.283 65.796 120.478 65.9558 120.635 66.1491C120.903 66.5497 121.005 67.0375 120.924 67.5124C120.844 67.9873 120.587 68.4134 120.203 68.7038C118.649 69.9986 116.673 70.6781 114.651 70.6133C113.544 70.6641 112.439 70.4837 111.406 70.0833C110.373 69.6829 109.435 69.0712 108.651 68.2878C107.868 67.5043 107.255 66.5663 106.854 65.5332C106.454 64.5001 106.275 63.3946 106.326 62.2878C106.28 61.2234 106.449 60.161 106.823 59.1634C107.197 58.1658 107.767 57.2532 108.5 56.4805C109.233 55.7078 110.114 55.0907 111.091 54.6654C112.068 54.2401 113.12 54.0157 114.185 54.0052C116.17 53.9418 118.1 54.667 119.552 56.0221C121.004 57.3773 121.861 59.2521 121.935 61.237C122.008 61.5904 121.995 61.9564 121.896 62.3034C121.797 62.6503 121.615 62.968 121.367 63.2298C121.119 63.4917 120.81 63.69 120.469 63.8073C120.128 63.9246 119.763 63.9574 119.406 63.9036L119.43 63.8984ZM112.432 86.4694C112.504 86.8208 112.489 87.1843 112.391 87.5293C112.293 87.8743 112.115 88.1905 111.87 88.4518C111.624 88.7131 111.317 88.9116 110.979 89.0306C110.641 89.1496 110.28 89.186 109.924 89.1361H101.365C101.53 90.0281 102.012 90.8304 102.721 91.3958C103.431 91.9612 104.32 92.2511 105.227 92.2129C106.398 92.2379 107.541 91.8617 108.469 91.1465C108.657 90.9828 108.877 90.8589 109.115 90.7819C109.352 90.7049 109.603 90.676 109.852 90.6979C110.1 90.7198 110.342 90.7915 110.562 90.9089C110.783 91.0262 110.978 91.1867 111.135 91.3809C111.404 91.7802 111.511 92.2674 111.432 92.7422C111.354 93.217 111.096 93.6436 110.714 93.9355C109.158 95.2316 107.18 95.9112 105.156 95.8451C104.05 95.8951 102.947 95.7139 101.914 95.3132C100.882 94.9124 99.9443 94.301 99.1615 93.5176C98.3786 92.7342 97.7673 91.7964 97.3672 90.7637C96.9671 89.731 96.7851 88.6259 96.8359 87.5195C96.7908 86.4552 96.9622 85.3928 97.3359 84.3952C97.7097 83.3976 98.2796 82.4856 99.013 81.7129C99.7464 80.9402 100.627 80.3224 101.604 79.8971C102.581 79.4718 103.633 79.2475 104.698 79.237C106.679 79.1808 108.601 79.9099 110.047 81.2656C111.493 82.6213 112.346 84.494 112.417 86.4746L112.432 86.4694ZM79.3646 81.3066C79.3827 80.7327 79.6256 80.1882 80.0391 79.7897C80.4525 79.3912 81.0039 79.1701 81.5781 79.1732C81.8871 79.1539 82.1972 79.2002 82.487 79.3092C82.7768 79.4183 83.0407 79.5872 83.2604 79.8053C83.4801 80.0235 83.6494 80.2858 83.7604 80.5749C83.8714 80.8639 83.9208 81.1733 83.9036 81.4824V93.3223C83.9044 93.6231 83.8452 93.9211 83.7292 94.1986C83.6131 94.4761 83.4412 94.7275 83.2266 94.9382C83.0119 95.1488 82.7588 95.3149 82.4792 95.4258C82.1995 95.5366 81.8997 95.5904 81.599 95.584C81.3086 95.5875 81.0196 95.5332 80.75 95.4251C80.4804 95.3171 80.2362 95.1569 80.0286 94.9538C79.8211 94.7507 79.6555 94.5087 79.5417 94.2415C79.4278 93.9744 79.3674 93.6876 79.3646 93.3971C78.7947 94.1119 78.0722 94.6903 77.25 95.0898C76.4278 95.4894 75.5261 95.6999 74.612 95.7064C73.53 95.7226 72.4571 95.5159 71.4583 95.0996C70.4595 94.6834 69.5575 94.0662 68.8073 93.2865C68.0571 92.5067 67.4738 91.5812 67.0964 90.5671C66.7189 89.553 66.5541 88.4724 66.612 87.3919C66.552 86.323 66.7118 85.2528 67.0781 84.2467C67.4444 83.2407 68.0115 82.3199 68.7448 81.5397C69.4781 80.7596 70.3623 80.1362 71.3438 79.7083C72.3252 79.2805 73.3825 79.0564 74.4531 79.0501C75.3922 79.0129 76.326 79.1988 77.1797 79.5918C78.0334 79.9848 78.7822 80.5742 79.3646 81.3119V81.3066ZM72.3932 56.1706C72.4154 55.5952 72.6621 55.0511 73.0781 54.653C73.4941 54.2549 74.0466 54.0339 74.6224 54.0371C74.9305 54.0187 75.2399 54.0654 75.5286 54.1745C75.8174 54.2835 76.0805 54.4524 76.2995 54.6699C76.5185 54.8874 76.6884 55.1488 76.7995 55.4369C76.9105 55.7249 76.959 56.0329 76.9427 56.3411V68.181C76.9435 68.4818 76.8843 68.7798 76.7682 69.0573C76.6522 69.3348 76.4829 69.5862 76.2682 69.7969C76.0536 70.0076 75.7979 70.1737 75.5182 70.2845C75.2386 70.3953 74.9414 70.4491 74.6406 70.4427C74.0531 70.4498 73.486 70.2231 73.0651 69.8132C72.6442 69.4032 72.4017 68.8434 72.3932 68.2559C71.8252 68.9701 71.1069 69.5483 70.2865 69.9479C69.4661 70.3475 68.5662 70.5582 67.6536 70.5651C66.5715 70.5821 65.4966 70.3763 64.4974 69.9603C63.4982 69.5443 62.5967 68.927 61.8464 68.1471C61.096 67.3672 60.5126 66.4415 60.1354 65.4271C59.7583 64.4126 59.595 63.3313 59.6536 62.2507C59.5929 61.1819 59.7489 60.1115 60.1146 59.1055C60.4803 58.0994 61.0484 57.1787 61.7812 56.3984C62.5141 55.6182 63.3964 54.995 64.3776 54.5671C65.3588 54.1391 66.4166 53.9151 67.487 53.9089C68.4268 53.8701 69.3621 54.0558 70.2161 54.4499C71.0702 54.844 71.8181 55.4355 72.3984 56.1758L72.3932 56.1706ZM110.047 146.736C100.479 150.573 90.2871 152.615 79.9792 152.757C69.6675 152.617 59.4694 150.576 49.8984 146.736C49.6534 146.635 49.4433 146.464 49.2969 146.243C49.1504 146.023 49.0755 145.763 49.0781 145.499C49.0836 145.311 49.1235 145.126 49.2005 144.954C49.2775 144.783 49.3893 144.629 49.526 144.5C49.6627 144.371 49.8218 144.27 49.9974 144.204C50.173 144.137 50.3618 144.106 50.5495 144.112H50.7474C51.7476 144.274 52.7578 144.361 53.7708 144.373H54.5911C58.7408 144.681 62.9125 144.31 66.9427 143.275L69.4193 142.544C72.8275 141.399 76.3815 140.748 79.974 140.608C83.5662 140.749 87.1202 141.401 90.5286 142.544L93.0026 143.275C97.0291 144.311 101.198 144.682 105.344 144.373H106.18C107.187 144.36 108.195 144.273 109.19 144.112H109.401C109.588 144.106 109.776 144.138 109.951 144.204C110.126 144.271 110.286 144.372 110.422 144.501C110.558 144.63 110.666 144.784 110.742 144.955C110.818 145.126 110.86 145.311 110.865 145.499C110.868 145.764 110.791 146.023 110.646 146.245C110.5 146.466 110.291 146.639 110.047 146.741V146.736ZM137.818 124.986C134.282 129.24 129.884 132.695 124.914 135.122C119.944 137.55 114.516 138.894 108.987 139.066H108.859C102.86 138.846 96.9258 137.728 91.2578 135.749C87.6385 134.438 83.8521 133.646 80.0104 133.397C76.1741 133.646 72.3927 134.439 68.7786 135.749C63.0986 137.731 57.1526 138.849 51.1406 139.066H51.013C45.4891 138.893 40.064 137.548 35.099 135.121C30.1339 132.694 25.7429 129.239 22.2135 124.986C15.6749 117.562 7.81367 103.893 7.54167 80.9811C7.3234 64.1795 12.8909 47.8137 23.3099 34.6309C33.7289 21.448 48.3655 12.2507 64.763 8.58138C64.8664 8.55827 64.9722 8.54533 65.0781 8.54362C65.4847 8.54358 65.8746 8.70347 66.1641 8.98893C66.4535 9.27439 66.6168 9.66252 66.6224 10.069C66.6172 10.391 66.5115 10.7031 66.3203 10.9622C66.1291 11.2213 65.8634 11.4144 65.5573 11.5143C40.2453 19.1303 14.112 41.4987 14.112 78.4694C14.0556 90.6861 17.2182 102.702 23.2839 113.307C26.1132 118.285 30.163 122.463 35.0495 125.448C39.936 128.433 45.5004 130.128 51.2214 130.373H51.6484C56.5787 130.036 61.4224 128.909 65.9948 127.035C70.456 125.178 75.1897 124.061 80.0104 123.728C84.8348 124.059 89.5721 125.176 94.0365 127.035C98.6119 128.911 103.459 130.039 108.393 130.373H108.815C114.535 130.128 120.099 128.433 124.984 125.448C129.87 122.463 133.919 118.285 136.747 113.307C142.815 102.703 145.978 90.6865 145.919 78.4694C145.919 41.4934 119.786 19.125 94.474 11.5143C94.167 11.4158 93.8998 11.2236 93.7083 10.9642C93.5169 10.7048 93.4099 10.3914 93.4062 10.069C93.4119 9.66252 93.5777 9.27439 93.8672 8.98893C94.1566 8.70347 94.5466 8.54358 94.9531 8.54362C95.0607 8.54628 95.1681 8.55921 95.2734 8.58138C111.67 12.2509 126.306 21.4486 136.724 34.6315C147.142 47.8144 152.709 64.1799 152.49 80.9811C152.196 103.898 144.346 117.568 137.818 124.992V124.986Z" fill="white"/>
</svg>
