<svg width="30" height="30" viewBox="0 0 30 30" fill="none" xmlns="http://www.w3.org/2000/svg">
<path d="M16.2828 2.22705V6.11505C18.4195 6.4217 20.3741 7.48814 21.7883 9.1189C23.2025 10.7497 23.9816 12.8355 23.9828 14.9941C23.9779 16.1089 23.7691 17.2133 23.3668 18.253L26.7018 20.2161C27.4448 18.5754 27.8297 16.7952 27.8308 14.9941C27.8295 11.8135 26.6476 8.74669 24.5141 6.38793C22.3805 4.02916 19.4473 2.54642 16.2828 2.22705V2.22705ZM14.9998 23.9761C12.7314 23.9743 10.5477 23.1139 8.88788 21.5677C7.22803 20.0216 6.21506 17.9043 6.05266 15.6417C5.89026 13.3791 6.59046 11.1389 8.01248 9.37158C9.4345 7.60421 11.4729 6.44072 13.7178 6.11505V2.22705C11.5885 2.43696 9.54546 3.17607 7.77469 4.37711C6.00392 5.57815 4.56164 7.20299 3.57912 9.10372C2.59661 11.0045 2.10506 13.1207 2.14922 15.2599C2.19337 17.3991 2.77183 19.4933 3.83194 21.3519C4.89205 23.2105 6.40015 24.7744 8.21897 25.9013C10.0378 27.0283 12.1096 27.6825 14.2458 27.8043C16.3819 27.9262 18.5147 27.5119 20.4499 26.5991C22.3851 25.6863 24.0612 24.304 25.3258 22.5781L21.9908 20.6151C21.1541 21.6658 20.0907 22.5139 18.8801 23.0959C17.6695 23.6779 16.343 23.9788 14.9998 23.9761Z" fill="white"/>
<path d="M14.0293 16.1152C14.0293 15.5091 14.1045 15.026 14.2549 14.666C14.4053 14.306 14.7015 13.9118 15.1436 13.4834C15.5902 13.0505 15.8727 12.7428 15.9912 12.5605C16.1735 12.2826 16.2646 11.9818 16.2646 11.6582C16.2646 11.2298 16.1576 10.904 15.9434 10.6807C15.7337 10.4528 15.4238 10.3389 15.0137 10.3389C14.6217 10.3389 14.305 10.4505 14.0635 10.6738C13.8265 10.8926 13.708 11.1911 13.708 11.5693H12.0469C12.056 10.7627 12.3294 10.1247 12.8672 9.65527C13.4095 9.18587 14.125 8.95117 15.0137 8.95117C15.9297 8.95117 16.6429 9.18359 17.1533 9.64844C17.6683 10.1133 17.9258 10.7627 17.9258 11.5967C17.9258 12.3395 17.5794 13.071 16.8867 13.791L16.0459 14.6182C15.7451 14.96 15.5902 15.459 15.5811 16.1152H14.0293ZM13.9131 18.2412C13.9131 17.9723 13.9974 17.7559 14.166 17.5918C14.3346 17.4232 14.5625 17.3389 14.8496 17.3389C15.1413 17.3389 15.3714 17.4255 15.54 17.5986C15.7087 17.7673 15.793 17.9814 15.793 18.2412C15.793 18.4919 15.7109 18.7015 15.5469 18.8701C15.3828 19.0387 15.1504 19.123 14.8496 19.123C14.5488 19.123 14.3164 19.0387 14.1523 18.8701C13.9928 18.7015 13.9131 18.4919 13.9131 18.2412Z" fill="white"/>
</svg>
