<svg width="28" height="28" viewBox="0 0 28 28" fill="none" xmlns="http://www.w3.org/2000/svg">
<path d="M14.0004 0.666504C11.4144 0.671417 8.88557 1.42825 6.72203 2.84482C4.55849 4.26139 2.85359 6.27656 1.81498 8.64486C0.776373 11.0132 0.448892 13.6324 0.872426 16.1835C1.29596 18.7346 2.45223 21.1075 4.20039 23.0132C5.44895 24.3666 6.96431 25.4467 8.65097 26.1854C10.3376 26.9242 12.159 27.3056 14.0004 27.3056C15.8417 27.3056 17.6631 26.9242 19.3498 26.1854C21.0365 25.4467 22.5518 24.3666 23.8004 23.0132C25.5486 21.1075 26.7048 18.7346 27.1284 16.1835C27.5519 13.6324 27.2244 11.0132 26.1858 8.64486C25.1472 6.27656 23.4423 4.26139 21.2787 2.84482C19.1152 1.42825 16.5864 0.671417 14.0004 0.666504ZM14.0004 24.6665C11.2383 24.6623 8.58561 23.5869 6.60039 21.6665C7.20311 20.1992 8.22844 18.9442 9.54606 18.061C10.8637 17.1778 12.4141 16.7062 14.0004 16.7062C15.5866 16.7062 17.1371 17.1778 18.4547 18.061C19.7723 18.9442 20.7977 20.1992 21.4004 21.6665C19.4152 23.5869 16.7624 24.6623 14.0004 24.6665ZM11.3337 11.3332C11.3337 10.8058 11.4901 10.2902 11.7831 9.85165C12.0762 9.41312 12.4926 9.07133 12.9799 8.86949C13.4672 8.66766 14.0033 8.61485 14.5206 8.71774C15.0379 8.82064 15.5131 9.07461 15.886 9.44755C16.2589 9.82049 16.5129 10.2956 16.6158 10.8129C16.7187 11.3302 16.6659 11.8664 16.4641 12.3537C16.2622 12.8409 15.9204 13.2574 15.4819 13.5504C15.0434 13.8434 14.5278 13.9998 14.0004 13.9998C13.2931 13.9998 12.6149 13.7189 12.1148 13.2188C11.6147 12.7187 11.3337 12.0404 11.3337 11.3332ZM23.2137 19.3332C22.0224 17.2955 20.1889 15.7105 18.0004 14.8265C18.6793 14.0567 19.1216 13.1074 19.2744 12.0924C19.4271 11.0775 19.2837 10.04 18.8614 9.1045C18.4391 8.16901 17.7558 7.37525 16.8936 6.81846C16.0314 6.26167 15.0268 5.9655 14.0004 5.9655C12.974 5.9655 11.9694 6.26167 11.1072 6.81846C10.2449 7.37525 9.56168 8.16901 9.13939 9.1045C8.71709 10.04 8.57371 11.0775 8.72643 12.0924C8.87915 13.1074 9.3215 14.0567 10.0004 14.8265C7.81185 15.7105 5.97835 17.2955 4.78706 19.3332C3.83765 17.716 3.33602 15.8751 3.33372 13.9998C3.33372 11.1709 4.45753 8.45775 6.45792 6.45737C8.45831 4.45698 11.1714 3.33317 14.0004 3.33317C16.8294 3.33317 19.5425 4.45698 21.5429 6.45737C23.5432 8.45775 24.6671 11.1709 24.6671 13.9998C24.6648 15.8751 24.1631 17.716 23.2137 19.3332Z" fill="white"/>
</svg>
